<mxfile host="app.diagrams.net" modified="2021-02-20T02:23:12.314Z" agent="5.0 (Windows NT 10.0; Win64; x64) AppleWebKit/537.36 (KHTML, like Gecko) Chrome/79.0.3938.0 Safari/537.36" etag="5XGGl1ZrwgncJJJUDll1" version="14.4.2" type="github">
  <diagram id="EH0AjtRyGiRlTrokt0bn" name="第 1 页">
    <mxGraphModel dx="1422" dy="762" grid="0" gridSize="10" guides="1" tooltips="1" connect="1" arrows="1" fold="1" page="1" pageScale="1" pageWidth="827" pageHeight="1169" math="0" shadow="0">
      <root>
        <mxCell id="0" />
        <mxCell id="1" parent="0" />
        <mxCell id="9PtbYEAr7HZEg0NtfB93-3" value="发起广告请求&lt;br&gt;API/SDK" style="edgeStyle=orthogonalEdgeStyle;rounded=0;orthogonalLoop=1;jettySize=auto;html=1;entryX=0;entryY=0.5;entryDx=0;entryDy=0;" edge="1" parent="1" source="9PtbYEAr7HZEg0NtfB93-1" target="9PtbYEAr7HZEg0NtfB93-2">
          <mxGeometry relative="1" as="geometry" />
        </mxCell>
        <mxCell id="9PtbYEAr7HZEg0NtfB93-1" value="" style="verticalLabelPosition=bottom;verticalAlign=top;html=1;shadow=0;dashed=0;strokeWidth=1;shape=mxgraph.android.phone2;strokeColor=#c0c0c0;" vertex="1" parent="1">
          <mxGeometry x="30" y="222" width="43" height="86" as="geometry" />
        </mxCell>
        <mxCell id="9PtbYEAr7HZEg0NtfB93-4" style="edgeStyle=orthogonalEdgeStyle;rounded=0;orthogonalLoop=1;jettySize=auto;html=1;exitX=0;exitY=0;exitDx=0;exitDy=0;entryX=0.581;entryY=0;entryDx=0;entryDy=0;entryPerimeter=0;" edge="1" parent="1" source="9PtbYEAr7HZEg0NtfB93-2" target="9PtbYEAr7HZEg0NtfB93-1">
          <mxGeometry relative="1" as="geometry">
            <Array as="points">
              <mxPoint x="199" y="201" />
              <mxPoint x="55" y="201" />
            </Array>
          </mxGeometry>
        </mxCell>
        <mxCell id="9PtbYEAr7HZEg0NtfB93-5" value="下发配置" style="edgeLabel;html=1;align=center;verticalAlign=middle;resizable=0;points=[];" vertex="1" connectable="0" parent="9PtbYEAr7HZEg0NtfB93-4">
          <mxGeometry x="-0.1462" y="4" relative="1" as="geometry">
            <mxPoint x="-14" y="-4" as="offset" />
          </mxGeometry>
        </mxCell>
        <mxCell id="9PtbYEAr7HZEg0NtfB93-9" style="edgeStyle=orthogonalEdgeStyle;rounded=0;orthogonalLoop=1;jettySize=auto;html=1;exitX=1;exitY=0.5;exitDx=0;exitDy=0;" edge="1" parent="1" source="9PtbYEAr7HZEg0NtfB93-2" target="9PtbYEAr7HZEg0NtfB93-8">
          <mxGeometry relative="1" as="geometry" />
        </mxCell>
        <mxCell id="9PtbYEAr7HZEg0NtfB93-2" value="adnetwork-intf" style="rounded=1;whiteSpace=wrap;html=1;" vertex="1" parent="1">
          <mxGeometry x="199" y="235" width="120" height="60" as="geometry" />
        </mxCell>
        <mxCell id="9PtbYEAr7HZEg0NtfB93-7" value="拉取基础数据" style="edgeStyle=orthogonalEdgeStyle;rounded=0;orthogonalLoop=1;jettySize=auto;html=1;entryX=0.5;entryY=0;entryDx=0;entryDy=0;" edge="1" parent="1" source="9PtbYEAr7HZEg0NtfB93-6" target="9PtbYEAr7HZEg0NtfB93-2">
          <mxGeometry relative="1" as="geometry" />
        </mxCell>
        <mxCell id="9PtbYEAr7HZEg0NtfB93-6" value="联盟&lt;br&gt;Redis" style="shape=cylinder3;whiteSpace=wrap;html=1;boundedLbl=1;backgroundOutline=1;size=15;" vertex="1" parent="1">
          <mxGeometry x="229" y="56" width="60" height="80" as="geometry" />
        </mxCell>
        <mxCell id="9PtbYEAr7HZEg0NtfB93-8" value="adx-intf-adnetwork" style="rounded=1;whiteSpace=wrap;html=1;" vertex="1" parent="1">
          <mxGeometry x="408" y="235" width="120" height="60" as="geometry" />
        </mxCell>
        <mxCell id="9PtbYEAr7HZEg0NtfB93-11" style="edgeStyle=orthogonalEdgeStyle;rounded=0;orthogonalLoop=1;jettySize=auto;html=1;entryX=0.5;entryY=1;entryDx=0;entryDy=0;" edge="1" parent="1" source="9PtbYEAr7HZEg0NtfB93-10" target="9PtbYEAr7HZEg0NtfB93-2">
          <mxGeometry relative="1" as="geometry" />
        </mxCell>
        <mxCell id="9PtbYEAr7HZEg0NtfB93-10" value="MD5与IMEI映射数据Redis" style="shape=cylinder3;whiteSpace=wrap;html=1;boundedLbl=1;backgroundOutline=1;size=15;" vertex="1" parent="1">
          <mxGeometry x="229" y="367" width="60" height="80" as="geometry" />
        </mxCell>
        <mxCell id="9PtbYEAr7HZEg0NtfB93-13" style="edgeStyle=orthogonalEdgeStyle;rounded=0;orthogonalLoop=1;jettySize=auto;html=1;" edge="1" parent="1" source="9PtbYEAr7HZEg0NtfB93-12">
          <mxGeometry relative="1" as="geometry">
            <mxPoint x="263" y="337" as="targetPoint" />
          </mxGeometry>
        </mxCell>
        <mxCell id="9PtbYEAr7HZEg0NtfB93-12" value="风控服务" style="rounded=1;whiteSpace=wrap;html=1;" vertex="1" parent="1">
          <mxGeometry x="130" y="316" width="76" height="42" as="geometry" />
        </mxCell>
      </root>
    </mxGraphModel>
  </diagram>
</mxfile>
